<svg width="150" height="44" viewBox="0 0 150 44" fill="none" xmlns="http://www.w3.org/2000/svg">
<g filter="url(#filter0_d_6207_216)">
<rect x="2" y="1" width="146" height="40" rx="8" fill="white"/>
<g clip-path="url(#clip0_6207_216)">
<path d="M24.6667 25.1667L28 28.5M28 28.5L31.3333 25.1667M28 28.5V21M35.4 26.075C36.1245 25.5655 36.6678 24.8385 36.9511 23.9993C37.2343 23.1601 37.2428 22.2525 36.9753 21.4082C36.7078 20.5639 36.1782 19.8267 35.4634 19.3038C34.7486 18.7809 33.8857 18.4993 33 18.5H31.95C31.6994 17.5232 31.2304 16.616 30.5784 15.8467C29.9265 15.0774 29.1085 14.4661 28.186 14.0586C27.2636 13.6512 26.2607 13.4584 25.2529 13.4946C24.2452 13.5308 23.2588 13.7952 22.368 14.2679C21.4772 14.7405 20.7052 15.409 20.1102 16.2232C19.5151 17.0373 19.1125 17.9759 18.9327 18.9681C18.7529 19.9604 18.8005 20.9805 19.072 21.9517C19.3435 22.9229 19.8317 23.8198 20.5 24.575" stroke="#344054" stroke-width="1.67" stroke-linecap="round" stroke-linejoin="round"/>
</g>
<path d="M50.4148 26H47.1186V15.8182H50.5192C51.5168 15.8182 52.3736 16.022 53.0895 16.4297C53.8054 16.834 54.3539 17.4157 54.7351 18.1747C55.1196 18.9304 55.3118 19.8369 55.3118 20.8942C55.3118 21.9548 55.1179 22.8662 54.7301 23.6286C54.3456 24.3909 53.7888 24.9775 53.0597 25.3885C52.3305 25.7962 51.4489 26 50.4148 26ZM48.6548 24.6577H50.3303C51.1058 24.6577 51.7505 24.5118 52.2642 24.2202C52.7779 23.9252 53.1624 23.4993 53.4176 22.9425C53.6728 22.3823 53.8004 21.6996 53.8004 20.8942C53.8004 20.0954 53.6728 19.4176 53.4176 18.8608C53.1657 18.304 52.7895 17.8814 52.2891 17.593C51.7886 17.3047 51.1671 17.1605 50.4247 17.1605H48.6548V24.6577ZM60.3194 26.1541C59.6035 26.1541 58.9788 25.9901 58.4451 25.6619C57.9115 25.3338 57.4972 24.8748 57.2022 24.2848C56.9073 23.6948 56.7598 23.0054 56.7598 22.2166C56.7598 21.4245 56.9073 20.7318 57.2022 20.1385C57.4972 19.5452 57.9115 19.0845 58.4451 18.7564C58.9788 18.4283 59.6035 18.2642 60.3194 18.2642C61.0353 18.2642 61.6601 18.4283 62.1937 18.7564C62.7273 19.0845 63.1416 19.5452 63.4366 20.1385C63.7316 20.7318 63.8791 21.4245 63.8791 22.2166C63.8791 23.0054 63.7316 23.6948 63.4366 24.2848C63.1416 24.8748 62.7273 25.3338 62.1937 25.6619C61.6601 25.9901 61.0353 26.1541 60.3194 26.1541ZM60.3244 24.9062C60.7884 24.9062 61.1729 24.7836 61.4778 24.5384C61.7827 24.2931 62.0081 23.9666 62.1539 23.5589C62.3031 23.1513 62.3777 22.7022 62.3777 22.2116C62.3777 21.7244 62.3031 21.277 62.1539 20.8693C62.0081 20.4583 61.7827 20.1286 61.4778 19.88C61.1729 19.6314 60.7884 19.5071 60.3244 19.5071C59.8571 19.5071 59.4693 19.6314 59.161 19.88C58.8561 20.1286 58.6291 20.4583 58.4799 20.8693C58.3341 21.277 58.2612 21.7244 58.2612 22.2116C58.2612 22.7022 58.3341 23.1513 58.4799 23.5589C58.6291 23.9666 58.8561 24.2931 59.161 24.5384C59.4693 24.7836 59.8571 24.9062 60.3244 24.9062ZM66.9615 26L64.7143 18.3636H66.2505L67.747 23.9716H67.8216L69.323 18.3636H70.8592L72.3507 23.9467H72.4252L73.9118 18.3636H75.448L73.2058 26H71.6895L70.1383 20.4865H70.024L68.4728 26H66.9615ZM78.3452 21.4659V26H76.8587V18.3636H78.2855V19.6065H78.38C78.5556 19.2022 78.8307 18.8774 79.2053 18.6321C79.5831 18.3868 80.0587 18.2642 80.6321 18.2642C81.1525 18.2642 81.6082 18.3736 81.9993 18.5923C82.3904 18.8078 82.6937 19.1293 82.9091 19.5568C83.1245 19.9844 83.2322 20.513 83.2322 21.1428V26H81.7457V21.3217C81.7457 20.7682 81.6016 20.3357 81.3132 20.0241C81.0249 19.7093 80.6288 19.5518 80.125 19.5518C79.7803 19.5518 79.4737 19.6264 79.2053 19.7756C78.9401 19.9247 78.7296 20.1435 78.5739 20.4318C78.4214 20.7169 78.3452 21.0616 78.3452 21.4659ZM86.7124 15.8182V26H85.2259V15.8182H86.7124ZM91.9288 26.1541C91.2129 26.1541 90.5881 25.9901 90.0545 25.6619C89.5209 25.3338 89.1066 24.8748 88.8116 24.2848C88.5166 23.6948 88.3691 23.0054 88.3691 22.2166C88.3691 21.4245 88.5166 20.7318 88.8116 20.1385C89.1066 19.5452 89.5209 19.0845 90.0545 18.7564C90.5881 18.4283 91.2129 18.2642 91.9288 18.2642C92.6447 18.2642 93.2695 18.4283 93.8031 18.7564C94.3367 19.0845 94.751 19.5452 95.046 20.1385C95.341 20.7318 95.4885 21.4245 95.4885 22.2166C95.4885 23.0054 95.341 23.6948 95.046 24.2848C94.751 24.8748 94.3367 25.3338 93.8031 25.6619C93.2695 25.9901 92.6447 26.1541 91.9288 26.1541ZM91.9338 24.9062C92.3978 24.9062 92.7823 24.7836 93.0872 24.5384C93.3921 24.2931 93.6175 23.9666 93.7633 23.5589C93.9125 23.1513 93.987 22.7022 93.987 22.2116C93.987 21.7244 93.9125 21.277 93.7633 20.8693C93.6175 20.4583 93.3921 20.1286 93.0872 19.88C92.7823 19.6314 92.3978 19.5071 91.9338 19.5071C91.4664 19.5071 91.0787 19.6314 90.7704 19.88C90.4655 20.1286 90.2385 20.4583 90.0893 20.8693C89.9435 21.277 89.8706 21.7244 89.8706 22.2116C89.8706 22.7022 89.9435 23.1513 90.0893 23.5589C90.2385 23.9666 90.4655 24.2931 90.7704 24.5384C91.0787 24.7836 91.4664 24.9062 91.9338 24.9062ZM99.37 26.169C98.8861 26.169 98.4486 26.0795 98.0575 25.9006C97.6664 25.7183 97.3565 25.4548 97.1278 25.1101C96.9025 24.7654 96.7898 24.3428 96.7898 23.8423C96.7898 23.4115 96.8726 23.0568 97.0384 22.7784C97.2041 22.5 97.4278 22.2796 97.7095 22.1172C97.9912 21.9548 98.3061 21.8321 98.6541 21.7493C99.0021 21.6664 99.3568 21.6035 99.718 21.5604C100.175 21.5073 100.547 21.4643 100.832 21.4311C101.117 21.3946 101.324 21.3366 101.453 21.2571C101.582 21.1776 101.647 21.0483 101.647 20.8693V20.8345C101.647 20.4003 101.524 20.0639 101.279 19.8253C101.037 19.5866 100.676 19.4673 100.195 19.4673C99.6948 19.4673 99.3004 19.5784 99.0121 19.8004C98.727 20.0192 98.5298 20.2628 98.4205 20.5312L97.0234 20.2131C97.1892 19.7491 97.4311 19.3745 97.7493 19.0895C98.0708 18.8011 98.4403 18.5923 98.858 18.4631C99.2756 18.3305 99.7147 18.2642 100.175 18.2642C100.48 18.2642 100.804 18.3007 101.145 18.3736C101.49 18.4432 101.811 18.5724 102.109 18.7614C102.411 18.9503 102.658 19.2204 102.85 19.5717C103.042 19.9197 103.138 20.3722 103.138 20.929V26H101.687V24.956H101.627C101.531 25.1482 101.387 25.3371 101.195 25.5227C101.002 25.7083 100.755 25.8625 100.454 25.9851C100.152 26.1077 99.791 26.169 99.37 26.169ZM99.6932 24.9759C100.104 24.9759 100.455 24.8946 100.747 24.7322C101.042 24.5698 101.266 24.3577 101.418 24.0959C101.574 23.8307 101.652 23.5473 101.652 23.2457V22.2614C101.599 22.3144 101.496 22.3641 101.344 22.4105C101.195 22.4536 101.024 22.4917 100.832 22.5249C100.639 22.5547 100.452 22.5829 100.27 22.6094C100.088 22.6326 99.9351 22.6525 99.8125 22.669C99.5241 22.7055 99.2607 22.7668 99.022 22.853C98.7867 22.9392 98.5978 23.0634 98.4553 23.2259C98.3161 23.3849 98.2464 23.5971 98.2464 23.8622C98.2464 24.2301 98.3823 24.5085 98.6541 24.6974C98.9259 24.883 99.2723 24.9759 99.6932 24.9759ZM107.977 26.1491C107.361 26.1491 106.81 25.9917 106.327 25.6768C105.846 25.3587 105.468 24.9062 105.193 24.3196C104.921 23.7296 104.785 23.022 104.785 22.1967C104.785 21.3714 104.923 20.6655 105.198 20.0788C105.476 19.4922 105.858 19.0431 106.341 18.7315C106.825 18.42 107.374 18.2642 107.987 18.2642C108.461 18.2642 108.842 18.3438 109.131 18.5028C109.422 18.6586 109.648 18.8409 109.807 19.0497C109.969 19.2585 110.095 19.4425 110.184 19.6016H110.274V15.8182H111.76V26H110.309V24.8118H110.184C110.095 24.9742 109.966 25.1598 109.797 25.3686C109.631 25.5774 109.402 25.7597 109.111 25.9155C108.819 26.0713 108.441 26.1491 107.977 26.1491ZM108.305 24.8814C108.733 24.8814 109.094 24.7687 109.389 24.5433C109.687 24.3146 109.913 23.9981 110.065 23.5938C110.221 23.1894 110.299 22.7187 110.299 22.1818C110.299 21.6515 110.223 21.1875 110.07 20.7898C109.918 20.392 109.694 20.0821 109.399 19.8601C109.104 19.638 108.739 19.527 108.305 19.527C107.858 19.527 107.485 19.643 107.187 19.875C106.888 20.107 106.663 20.4235 106.51 20.8246C106.361 21.2256 106.287 21.678 106.287 22.1818C106.287 22.6922 106.363 23.1513 106.515 23.5589C106.668 23.9666 106.893 24.2898 107.192 24.5284C107.493 24.7637 107.864 24.8814 108.305 24.8814ZM119.809 26.169C119.326 26.169 118.888 26.0795 118.497 25.9006C118.106 25.7183 117.796 25.4548 117.567 25.1101C117.342 24.7654 117.229 24.3428 117.229 23.8423C117.229 23.4115 117.312 23.0568 117.478 22.7784C117.644 22.5 117.867 22.2796 118.149 22.1172C118.431 21.9548 118.746 21.8321 119.094 21.7493C119.442 21.6664 119.796 21.6035 120.157 21.5604C120.615 21.5073 120.986 21.4643 121.271 21.4311C121.556 21.3946 121.763 21.3366 121.893 21.2571C122.022 21.1776 122.086 21.0483 122.086 20.8693V20.8345C122.086 20.4003 121.964 20.0639 121.719 19.8253C121.477 19.5866 121.115 19.4673 120.635 19.4673C120.134 19.4673 119.74 19.5784 119.452 19.8004C119.166 20.0192 118.969 20.2628 118.86 20.5312L117.463 20.2131C117.629 19.7491 117.871 19.3745 118.189 19.0895C118.51 18.8011 118.88 18.5923 119.297 18.4631C119.715 18.3305 120.154 18.2642 120.615 18.2642C120.92 18.2642 121.243 18.3007 121.584 18.3736C121.929 18.4432 122.251 18.5724 122.549 18.7614C122.85 18.9503 123.097 19.2204 123.29 19.5717C123.482 19.9197 123.578 20.3722 123.578 20.929V26H122.126V24.956H122.067C121.97 25.1482 121.826 25.3371 121.634 25.5227C121.442 25.7083 121.195 25.8625 120.893 25.9851C120.592 26.1077 120.23 26.169 119.809 26.169ZM120.133 24.9759C120.544 24.9759 120.895 24.8946 121.187 24.7322C121.482 24.5698 121.705 24.3577 121.858 24.0959C122.014 23.8307 122.091 23.5473 122.091 23.2457V22.2614C122.038 22.3144 121.936 22.3641 121.783 22.4105C121.634 22.4536 121.463 22.4917 121.271 22.5249C121.079 22.5547 120.892 22.5829 120.709 22.6094C120.527 22.6326 120.375 22.6525 120.252 22.669C119.964 22.7055 119.7 22.7668 119.461 22.853C119.226 22.9392 119.037 23.0634 118.895 23.2259C118.756 23.3849 118.686 23.5971 118.686 23.8622C118.686 24.2301 118.822 24.5085 119.094 24.6974C119.365 24.883 119.712 24.9759 120.133 24.9759ZM127.044 15.8182V26H125.558V15.8182H127.044ZM130.531 15.8182V26H129.044V15.8182H130.531Z" fill="#344054"/>
<rect x="2.5" y="1.5" width="145" height="39" rx="7.5" stroke="#D0D5DD"/>
</g>
<defs>
<filter id="filter0_d_6207_216" x="0" y="0" width="150" height="44" filterUnits="userSpaceOnUse" color-interpolation-filters="sRGB">
<feFlood flood-opacity="0" result="BackgroundImageFix"/>
<feColorMatrix in="SourceAlpha" type="matrix" values="0 0 0 0 0 0 0 0 0 0 0 0 0 0 0 0 0 0 127 0" result="hardAlpha"/>
<feOffset dy="1"/>
<feGaussianBlur stdDeviation="1"/>
<feColorMatrix type="matrix" values="0 0 0 0 0.0627451 0 0 0 0 0.0941176 0 0 0 0 0.156863 0 0 0 0.05 0"/>
<feBlend mode="normal" in2="BackgroundImageFix" result="effect1_dropShadow_6207_216"/>
<feBlend mode="normal" in="SourceGraphic" in2="effect1_dropShadow_6207_216" result="shape"/>
</filter>
<clipPath id="clip0_6207_216">
<rect width="20" height="20" fill="white" transform="translate(18 11)"/>
</clipPath>
</defs>
</svg>
