<svg width="39" height="38" viewBox="0 0 39 38" fill="none" xmlns="http://www.w3.org/2000/svg">
<g filter="url(#filter0_dd_21_27254)">
<g clip-path="url(#clip0_21_27254)">
<rect x="3" y="2" width="32.2254" height="32" rx="8" fill="white"/>
<rect x="3" y="2" width="32.2254" height="32" rx="8" fill="url(#paint0_linear_21_27254)"/>
<path fill-rule="evenodd" clip-rule="evenodd" d="M19.1127 4.03885C11.3478 4.03885 5.05319 10.2895 5.05319 18C5.05319 25.7106 11.3478 31.9612 19.1127 31.9612C26.8775 31.9612 33.1722 25.7106 33.1722 18C33.1722 10.2895 26.8775 4.03885 19.1127 4.03885ZM4.97498 18C4.97498 10.2466 11.3046 3.96118 19.1127 3.96118C26.9207 3.96118 33.2504 10.2466 33.2504 18C33.2504 25.7535 26.9207 32.0389 19.1127 32.0389C11.3046 32.0389 4.97498 25.7535 4.97498 18Z" fill="#D0D5DD"/>
<path fill-rule="evenodd" clip-rule="evenodd" d="M19.1127 14.0779C16.9312 14.0779 15.1628 15.834 15.1628 18.0002C15.1628 20.1665 16.9312 21.9226 19.1127 21.9226C21.2942 21.9226 23.0627 20.1665 23.0627 18.0002C23.0627 15.834 21.2942 14.0779 19.1127 14.0779ZM15.0845 18.0002C15.0845 15.7911 16.888 14.0002 19.1127 14.0002C21.3374 14.0002 23.1409 15.7911 23.1409 18.0002C23.1409 20.2094 21.3374 22.0002 19.1127 22.0002C16.888 22.0002 15.0845 20.2094 15.0845 18.0002Z" fill="#D0D5DD"/>
<path fill-rule="evenodd" clip-rule="evenodd" d="M19.1127 15.3201C17.6223 15.3201 16.4142 16.5198 16.4142 17.9997C16.4142 19.4796 17.6223 20.6793 19.1127 20.6793C20.603 20.6793 21.8111 19.4796 21.8111 17.9997C21.8111 16.5198 20.603 15.3201 19.1127 15.3201ZM16.336 17.9997C16.336 16.4769 17.5791 15.2424 19.1127 15.2424C20.6462 15.2424 21.8894 16.4769 21.8894 17.9997C21.8894 19.5225 20.6462 20.757 19.1127 20.757C17.5791 20.757 16.336 19.5225 16.336 17.9997Z" fill="#D0D5DD"/>
<path d="M19.0735 2H19.1518V34H19.0735V2Z" fill="#D0D5DD"/>
<path d="M35.2253 17.9609L35.2253 18.0386L2.99999 18.0386L2.99999 17.9609L35.2253 17.9609Z" fill="#D0D5DD"/>
<path d="M29.7893 2H29.8675V34H29.7893V2Z" fill="#D0D5DD"/>
<path d="M13.7157 2H13.7939V34H13.7157V2Z" fill="#D0D5DD"/>
<path d="M24.4314 2H24.5096V34H24.4314V2Z" fill="#D0D5DD"/>
<path d="M8.35785 2H8.43607V34H8.35785V2Z" fill="#D0D5DD"/>
<path d="M35.2253 28.6016L35.2253 28.6792L2.99999 28.6792L2.99999 28.6016L35.2253 28.6016Z" fill="#D0D5DD"/>
<path d="M35.2253 12.6406L35.2253 12.7183L2.99999 12.7183L2.99999 12.6406L35.2253 12.6406Z" fill="#D0D5DD"/>
<path d="M35.2253 23.2812L35.2253 23.3589L2.99999 23.3589L2.99999 23.2812L35.2253 23.2812Z" fill="#D0D5DD"/>
<path d="M35.2253 7.32031L35.2253 7.39798L2.99999 7.39798L2.99999 7.32031L35.2253 7.32031Z" fill="#D0D5DD"/>
<g filter="url(#filter1_dd_21_27254)">
<ellipse cx="19.1127" cy="18" rx="8.05634" ry="8" fill="url(#paint1_linear_21_27254)"/>
</g>
<g filter="url(#filter2_b_21_27254)">
<path d="M3 18H35.2254V21.2C35.2254 25.6804 35.2254 27.9206 34.3534 29.6319C33.5864 31.1372 32.3626 32.3611 30.8573 33.1281C29.146 34 26.9058 34 22.4254 34H15.8C11.3196 34 9.07937 34 7.36808 33.1281C5.86278 32.3611 4.63893 31.1372 3.87195 29.6319C3 27.9206 3 25.6804 3 21.2V18Z" fill="white" fill-opacity="0.2"/>
</g>
</g>
<rect x="3.1" y="2.1" width="32.0254" height="31.8" rx="7.9" stroke="#D0D5DD" stroke-width="0.2"/>
</g>
<defs>
<filter id="filter0_dd_21_27254" x="0" y="0" width="38.2253" height="38" filterUnits="userSpaceOnUse" color-interpolation-filters="sRGB">
<feFlood flood-opacity="0" result="BackgroundImageFix"/>
<feColorMatrix in="SourceAlpha" type="matrix" values="0 0 0 0 0 0 0 0 0 0 0 0 0 0 0 0 0 0 127 0" result="hardAlpha"/>
<feOffset dy="1"/>
<feGaussianBlur stdDeviation="1"/>
<feColorMatrix type="matrix" values="0 0 0 0 0.0627451 0 0 0 0 0.0941176 0 0 0 0 0.156863 0 0 0 0.06 0"/>
<feBlend mode="normal" in2="BackgroundImageFix" result="effect1_dropShadow_21_27254"/>
<feColorMatrix in="SourceAlpha" type="matrix" values="0 0 0 0 0 0 0 0 0 0 0 0 0 0 0 0 0 0 127 0" result="hardAlpha"/>
<feOffset dy="1"/>
<feGaussianBlur stdDeviation="1.5"/>
<feColorMatrix type="matrix" values="0 0 0 0 0.0627451 0 0 0 0 0.0941176 0 0 0 0 0.156863 0 0 0 0.1 0"/>
<feBlend mode="normal" in2="effect1_dropShadow_21_27254" result="effect2_dropShadow_21_27254"/>
<feBlend mode="normal" in="SourceGraphic" in2="effect2_dropShadow_21_27254" result="shape"/>
</filter>
<filter id="filter1_dd_21_27254" x="8.05634" y="8" width="22.1127" height="22" filterUnits="userSpaceOnUse" color-interpolation-filters="sRGB">
<feFlood flood-opacity="0" result="BackgroundImageFix"/>
<feColorMatrix in="SourceAlpha" type="matrix" values="0 0 0 0 0 0 0 0 0 0 0 0 0 0 0 0 0 0 127 0" result="hardAlpha"/>
<feOffset dy="1"/>
<feGaussianBlur stdDeviation="1"/>
<feColorMatrix type="matrix" values="0 0 0 0 0.0627451 0 0 0 0 0.0941176 0 0 0 0 0.156863 0 0 0 0.06 0"/>
<feBlend mode="normal" in2="BackgroundImageFix" result="effect1_dropShadow_21_27254"/>
<feColorMatrix in="SourceAlpha" type="matrix" values="0 0 0 0 0 0 0 0 0 0 0 0 0 0 0 0 0 0 127 0" result="hardAlpha"/>
<feOffset dy="1"/>
<feGaussianBlur stdDeviation="1.5"/>
<feColorMatrix type="matrix" values="0 0 0 0 0.0627451 0 0 0 0 0.0941176 0 0 0 0 0.156863 0 0 0 0.1 0"/>
<feBlend mode="normal" in2="effect1_dropShadow_21_27254" result="effect2_dropShadow_21_27254"/>
<feBlend mode="normal" in="SourceGraphic" in2="effect2_dropShadow_21_27254" result="shape"/>
</filter>
<filter id="filter2_b_21_27254" x="-2" y="13" width="42.2253" height="26" filterUnits="userSpaceOnUse" color-interpolation-filters="sRGB">
<feFlood flood-opacity="0" result="BackgroundImageFix"/>
<feGaussianBlur in="BackgroundImageFix" stdDeviation="2.5"/>
<feComposite in2="SourceAlpha" operator="in" result="effect1_backgroundBlur_21_27254"/>
<feBlend mode="normal" in="SourceGraphic" in2="effect1_backgroundBlur_21_27254" result="shape"/>
</filter>
<linearGradient id="paint0_linear_21_27254" x1="19.1127" y1="2" x2="19.1127" y2="34" gradientUnits="userSpaceOnUse">
<stop stop-color="white"/>
<stop offset="1" stop-color="#D0D5DD"/>
</linearGradient>
<linearGradient id="paint1_linear_21_27254" x1="15.0845" y1="26" x2="23.0508" y2="9.95528" gradientUnits="userSpaceOnUse">
<stop stop-color="#53389E"/>
<stop offset="1" stop-color="#6941C6"/>
</linearGradient>
<clipPath id="clip0_21_27254">
<rect x="3" y="2" width="32.2254" height="32" rx="8" fill="white"/>
</clipPath>
</defs>
</svg>
